<?xml version="1.0" encoding="UTF-8" standalone="no"?>
<svg
   xmlns:dc="http://purl.org/dc/elements/1.1/"
   xmlns:cc="http://creativecommons.org/ns#"
   xmlns:rdf="http://www.w3.org/1999/02/22-rdf-syntax-ns#"
   xmlns:svg="http://www.w3.org/2000/svg"
   xmlns="http://www.w3.org/2000/svg"
   xmlns:xlink="http://www.w3.org/1999/xlink"
   xmlns:sodipodi="http://sodipodi.sourceforge.net/DTD/sodipodi-0.dtd"
   xmlns:inkscape="http://www.inkscape.org/namespaces/inkscape"
   fill="#000000"
   height="48"
   viewBox="0 0 24 24"
   width="48"
   id="svg2"
   version="1.1"
   inkscape:version="0.91 r13725"
   sodipodi:docname="ic_touch_app_black_48px.svg">
  <metadata
     id="metadata14">
    <rdf:RDF>
      <cc:Work
         rdf:about="">
        <dc:format>image/svg+xml</dc:format>
        <dc:type
           rdf:resource="http://purl.org/dc/dcmitype/StillImage" />
      </cc:Work>
    </rdf:RDF>
  </metadata>
  <sodipodi:namedview
     pagecolor="#ffffff"
     bordercolor="#666666"
     borderopacity="1"
     objecttolerance="10"
     gridtolerance="10"
     guidetolerance="10"
     inkscape:pageopacity="0"
     inkscape:pageshadow="2"
     inkscape:window-width="1280"
     inkscape:window-height="961"
     id="namedview12"
     showgrid="false"
     inkscape:zoom="4.9166667"
     inkscape:cx="-6"
     inkscape:cy="24"
     inkscape:window-x="-8"
     inkscape:window-y="-8"
     inkscape:window-maximized="1"
     inkscape:current-layer="svg2" />
  <defs
     id="defs4">
    <path
       d="M0 0h24v24H0V0z"
       id="a" />
  </defs>
  <clipPath
     id="b">
    <use
       overflow="visible"
       xlink:href="#a"
       id="use8" />
  </clipPath>
  <path
     clip-path="url(#b)"
     d="M 9,11.24 9,7.5 C 9,6.12 10.12,5 11.5,5 12.88,5 14,6.12 14,7.5 l 0,3.74 C 15.21,10.43 16,9.06 16,7.5 16,5.01 13.99,3 11.5,3 9.01,3 7,5.01 7,7.5 c 0,1.56 0.79,2.93 2,3.74 z m 9.84,4.63 -4.54,-2.26 C 14.13,13.54 13.95,13.5 13.76,13.5 l -0.76,0 0,-6 C 13,6.67 12.33,6 11.5,6 10.67,6 10,6.67 10,7.5 L 10,18.24 6.57,17.52 C 6.49,17.51 6.42,17.49 6.33,17.49 c -0.31,0 -0.59,0.13 -0.79,0.33 l -0.79,0.8 4.94,4.94 C 9.96,23.83 10.34,24 10.75,24 l 6.79,0 c 0.75,0 1.33,-0.55 1.44,-1.28 l 0.75,-5.27 c 0.01,-0.07 0.02,-0.14 0.02,-0.2 0,-0.62 -0.38,-1.16 -0.91,-1.38 z"
     id="path10"
     inkscape:connector-curvature="0"
     transform="translate(0,-1.3220339)"
     style="fill:#e4555f;fill-opacity:0.94117647" />
</svg>
